<mxfile host="app.diagrams.net" modified="2023-12-20T09:48:49.329Z" agent="Mozilla/5.0 (Windows NT 10.0; Win64; x64) AppleWebKit/537.36 (KHTML, like Gecko) Chrome/120.0.0.0 Safari/537.36" version="22.1.11" etag="BpLrToF10aZFRSkP-DfE" type="github">
  <diagram name="Halaman-1" id="AmT_KRtYpaqmbSRPo_Wf">
    <mxGraphModel>
      <root>
        <mxCell id="0" />
        <mxCell id="1" parent="0" />
      </root>
    </mxGraphModel>
  </diagram>
</mxfile>
